<?xml version="1.0" encoding="utf-8"?>
<!-- Generator: Adobe Illustrator 19.1.0, SVG Export Plug-In . SVG Version: 6.00 Build 0)  -->
<!DOCTYPE svg PUBLIC "-//W3C//DTD SVG 1.1//EN" "http://www.w3.org/Graphics/SVG/1.1/DTD/svg11.dtd">
<svg version="1.1" id="Layer_1" xmlns="http://www.w3.org/2000/svg" xmlns:xlink="http://www.w3.org/1999/xlink" x="0px" y="0px"
	 viewBox="0 0 960 560" style="enable-background:new 0 0 960 560;" xml:space="preserve">
<style type="text/css">
	.st0{fill:#275AA8;stroke:#275AA8;stroke-width:5;stroke-miterlimit:10;}
	.st1{fill:#E4264F;}
	.st2{fill:#F3ECBA;}
	.st3{fill:#EFF1C2;}
	.st4{display:none;}
	.st5{display:inline;fill:#006CB5;}
	.st6{display:inline;fill:#231F20;}
	.st7{display:inline;fill:#808184;}
</style>
<path class="st0" d="M430.5,251.4v52H484v12h-53.6v63.9h-12.6V239.4h78.7v12H430.5z"/>
<path class="st0" d="M515.4,254.7v-16h13.9v16H515.4z M516.4,378.6v-99.9h12v99.9H516.4z"/>
<path class="st0" d="M615.2,362.6c-1.5,3.6-3.6,6.7-6.3,9.4c-2.7,2.7-5.8,4.8-9.4,6.3c-3.6,1.5-7.4,2.3-11.4,2.3h-8
	c-4,0-7.8-0.8-11.4-2.3c-3.6-1.5-6.7-3.6-9.4-6.3c-2.7-2.7-4.8-5.8-6.3-9.4c-1.5-3.6-2.3-7.4-2.3-11.4v-45.1c0-4,0.8-7.8,2.3-11.4
	c1.5-3.6,3.6-6.7,6.3-9.4c2.7-2.7,5.8-4.8,9.4-6.3c3.6-1.5,7.4-2.3,11.4-2.3h8c4,0,7.8,0.8,11.4,2.3c3.6,1.5,6.7,3.6,9.4,6.3
	c2.7,2.7,4.8,5.8,6.3,9.4c1.5,3.6,2.3,7.4,2.3,11.4v23.5h-54.7v22.2c0,2.4,0.5,4.7,1.4,6.8c0.9,2.1,2.1,4,3.7,5.5
	c1.6,1.6,3.4,2.8,5.5,3.7c2.1,0.9,4.4,1.4,6.8,1.4h8c2.4,0,4.7-0.5,6.8-1.4c2.1-0.9,4-2.1,5.5-3.7c1.6-1.6,2.8-3.4,3.7-5.5
	c0.9-2.1,1.4-4.4,1.4-6.8v-6.6l12,2v4C617.5,355.2,616.7,359,615.2,362.6z M605.5,305.4c0-2.4-0.5-4.7-1.4-6.8
	c-0.9-2.1-2.1-4-3.7-5.5c-1.6-1.6-3.4-2.8-5.5-3.7c-2.1-0.9-4.4-1.4-6.8-1.4h-8c-2.4,0-4.7,0.5-6.8,1.4c-2.1,0.9-4,2.1-5.5,3.7
	c-1.6,1.6-2.8,3.4-3.7,5.5c-0.9,2.1-1.4,4.4-1.4,6.8v14.8h42.7V305.4z"/>
<path class="st0" d="M639.1,378.6V238.7h12v139.9H639.1z"/>
<path class="st0" d="M735.5,378.6l-6.6-10.1c-2.7,3.7-6.1,6.6-10.2,8.8c-4.1,2.2-8.6,3.3-13.5,3.3h-3c-4,0-7.8-0.8-11.4-2.3
	c-3.6-1.5-6.7-3.6-9.4-6.3c-2.7-2.7-4.8-5.8-6.3-9.4c-1.5-3.6-2.3-7.4-2.3-11.4v-45.1c0-4,0.8-7.8,2.3-11.4c1.5-3.6,3.6-6.7,6.3-9.4
	c2.7-2.7,5.8-4.8,9.4-6.3c3.6-1.5,7.4-2.3,11.4-2.3h3c4.5,0,8.6,0.9,12.5,2.7c3.8,1.8,7.1,4.4,9.9,7.6v-48.4h12v139.9H735.5z
	 M727.5,305.4c0-2.4-0.5-4.7-1.4-6.8c-0.9-2.1-2.1-4-3.7-5.5c-1.6-1.6-3.4-2.8-5.5-3.7c-2.1-0.9-4.4-1.4-6.8-1.4h-8
	c-2.4,0-4.7,0.5-6.8,1.4c-2.1,0.9-4,2.1-5.5,3.7c-1.6,1.6-2.8,3.4-3.7,5.5c-0.9,2.1-1.4,4.4-1.4,6.8v46.4c0,2.4,0.5,4.7,1.4,6.8
	c0.9,2.1,2.1,4,3.7,5.5c1.6,1.6,3.4,2.8,5.5,3.7c2.1,0.9,4.4,1.4,6.8,1.4h8c2.4,0,4.7-0.5,6.8-1.4c2.1-0.9,4-2.1,5.5-3.7
	c1.6-1.6,2.8-3.4,3.7-5.5c0.9-2.1,1.4-4.4,1.4-6.8V305.4z"/>
<path class="st0" d="M837.5,359.6c-1.8,4.2-4.2,7.8-7.4,10.9c-3.1,3.1-6.8,5.6-10.9,7.4c-4.2,1.8-8.6,2.7-13.4,2.7h-5.9
	c-4.7,0-9.2-0.9-13.4-2.7c-4.2-1.8-7.9-4.2-11-7.4c-3.1-3.1-5.6-6.8-7.4-10.9c-1.8-4.2-2.7-8.6-2.7-13.4V344h12.6v2.1
	c0,3.1,0.6,6,1.8,8.7c1.2,2.7,2.8,5.1,4.8,7.1c2,2,4.4,3.7,7.1,4.8c2.7,1.2,5.6,1.8,8.7,1.8h4.8c3.1,0,6-0.6,8.7-1.8
	c2.7-1.2,5.1-2.8,7.1-4.8c1.6-1.6,2.9-3.5,4-5.5c0.3-0.5,0.5-1.1,0.8-1.6c1.2-2.7,1.8-5.6,1.8-8.7v-27.1c0-3.1-0.6-6-1.8-8.7
	c-1.2-2.7-2.8-5.1-4.8-7.1c-2-2-4.4-3.7-7.1-4.8c-2.7-1.2-5.6-1.8-8.7-1.8h-4.8c-3.1,0-6,0.6-8.7,1.8c-2.7,1.2-5.1,2.8-7.1,4.8
	c-2,2-3.7,4.4-4.8,7.1c-1.2,2.7-1.8,5.6-1.8,8.7h-12.6l8-80.4h59.8v12h-48l-4.6,43c3-2.9,6.5-5.1,10.4-6.7c4-1.6,8.2-2.4,12.8-2.4h2
	c4.7,0,9.2,0.9,13.4,2.7c4.2,1.8,7.8,4.2,10.9,7.4s5.6,6.8,7.4,11c1.8,4.2,2.7,8.7,2.7,13.4v27.1
	C840.2,350.9,839.3,355.4,837.5,359.6z"/>
<path class="st0" d="M932.6,359.6c-1.8,4.2-4.2,7.8-7.4,10.9c-3.1,3.1-6.8,5.6-10.9,7.4c-4.2,1.8-8.6,2.7-13.4,2.7h-6
	c-4.7,0-9.2-0.9-13.4-2.7c-4.2-1.8-7.8-4.2-10.9-7.4c-3.1-3.1-5.6-6.8-7.4-10.9c-1.8-4.2-2.7-8.6-2.7-13.4v-3.6l12.6-2v5.6
	c0,3.1,0.6,6,1.8,8.7c1.2,2.7,2.8,5.1,4.8,7.1c2,2,4.4,3.7,7.1,4.8c2.7,1.2,5.6,1.8,8.7,1.8h4.8c3.1,0,6-0.6,8.7-1.8
	c2.7-1.2,5.1-2.8,7.1-4.8c2-2,3.7-4.4,4.8-7.1c1.2-2.7,1.8-5.6,1.8-8.7v-34.7c-3.3,3.5-7.1,6.3-11.5,8.4c-4.4,2.1-9.2,3.2-14.2,3.2
	h-2c-4.7,0-9.2-0.9-13.4-2.7c-4.2-1.8-7.8-4.2-10.9-7.4c-3.1-3.1-5.6-6.8-7.4-11c-1.8-4.2-2.7-8.7-2.7-13.4v-17.6
	c0-4.7,0.9-9.2,2.7-13.4c1.8-4.2,4.2-7.8,7.4-10.9c3.1-3.1,6.8-5.6,10.9-7.4c4.2-1.8,8.6-2.7,13.4-2.7h6c4.7,0,9.2,0.9,13.4,2.7
	c4.2,1.8,7.8,4.2,10.9,7.4c3.1,3.1,5.6,6.8,7.4,10.9c1.8,4.2,2.7,8.6,2.7,13.4v75.1C935.3,350.9,934.4,355.4,932.6,359.6z
	 M922.7,271.1c0-3.1-0.6-6-1.8-8.7c-1.2-2.7-2.8-5.1-4.8-7.1c-2-2-4.4-3.6-7.1-4.8c-2.7-1.2-5.6-1.8-8.7-1.8h-4.8
	c-3.1,0-6,0.6-8.7,1.8c-2.7,1.2-5.1,2.8-7.1,4.8c-2,2-3.6,4.4-4.8,7.1c-1.2,2.7-1.8,5.6-1.8,8.7v17.6c0,3.1,0.6,6,1.8,8.7
	c1.2,2.7,2.8,5.1,4.8,7.1c2,2,4.4,3.7,7.1,4.8c2.7,1.2,5.6,1.8,8.7,1.8h4.8c3.1,0,6-0.6,8.7-1.8c2.7-1.2,5.1-2.8,7.1-4.8
	c2-2,3.7-4.4,4.8-7.1c1.2-2.7,1.8-5.6,1.8-8.7V271.1z"/>
<path class="st1" d="M372.7,412.7l-155.6,86.1c-6.3,4.2-14.5,4.2-20.8,0L31.5,412.7c-5.2-3.5-8.3-9.4-8.3-15.6V219.8
	c0-6.3,3.1-12.2,8.3-15.6l164.8-86.1c6.3-4.2,14.5-4.2,20.8,0l155.6,86.1c5.2,3.5,8.3,9.4,8.3,15.6v177.2
	C381.1,403.3,377.9,409.2,372.7,412.7z"/>
<path class="st2" d="M363.2,406.7l-146.9,81.2c-5.9,4-13.7,4-19.6,0L41.1,406.7c-4.9-3.3-7.9-8.8-7.9-14.7V224.9
	c0-5.9,2.9-11.5,7.9-14.7L196.7,129c5.9-4,13.7-4,19.6,0l146.9,81.2c4.9,3.3,7.9,8.8,7.9,14.7V392
	C371.1,397.9,368.1,403.4,363.2,406.7z"/>
<path class="st1" d="M353.4,400.9l-138,76.3c-5.6,3.7-12.8,3.7-18.4,0L50.9,400.9c-4.6-3.1-7.4-8.3-7.4-13.9V229.9
	c0-5.6,2.8-10.8,7.4-13.9L197,139.7c5.6-3.7,12.8-3.7,18.4,0l138,76.3c4.6,3.1,7.4,8.3,7.4,13.9V387
	C360.8,392.6,358,397.8,353.4,400.9z"/>
<g>
	<path class="st3" d="M267.1,196.7c-1-3.5-3-6.3-5.9-8.6c-2.9-2.3-6.4-3.9-10.3-5c-4-1.1-8.3-1.5-12.9-1.3c-4.6,0.2-9.3,1-13.9,2.4
		c-5.1,1.5-10.3,3.6-15.5,6.2c-5.2,2.6-10,6-14.4,10.2c-4.4,4.2-8,9.3-10.7,15.3c-2.8,6-4.1,13.2-4,21.7l0,10.4l-26.7-0.2l3.7,15.3
		h23l0,108.8c-6.9,3.8-13.2,7.5-19,11.1c-5.8,3.6-10.7,7.3-14.8,11.2c-4.1,3.8-7,7.9-8.7,12.1c-1.7,4.3-1.8,8.9-0.4,13.8
		c1,3.5,3,6.3,5.9,8.6c2.9,2.3,6.4,3.9,10.3,5c4,1.1,8.3,1.5,12.9,1.3c4.6-0.2,9.3-1,13.9-2.4c5.1-1.5,10.2-3.6,15.3-6.1
		c5.1-2.6,9.8-5.9,14.1-10.1c4.3-4.2,7.8-9.3,10.4-15.3c2.6-6,3.9-13.2,3.8-21.6l0.1-117l21.5,0l5.2-15.4l-26.9-0.1l0.1-22.7
		c-0.1-3.9,0.4-7.3,1.5-10.1c1-2.8,2.4-5.2,4-7.1c1.6-1.9,3.4-3.4,5.3-4.5c1.9-1.1,3.6-1.9,5.3-2.4c3.1-0.9,5.9-1.1,8.7-0.6
		c2.7,0.5,4.4,2,5.2,4.4c0.3,1,0.5,2,0.7,2.9c0.2,0.9,0.3,1.9,0.4,3.2l14.4-4.3C268.6,203,268.1,200,267.1,196.7z M179.2,393.5
		c-0.1,7.1-1.4,12.3-3.8,15.6c-2.4,3.3-5.3,5.5-8.6,6.5c-3.5,1-6.6,1.1-9.4,0.2c-2.8-0.9-4.5-2.1-4.9-3.7c-0.9-2.9-0.8-5.7,0.3-8.6
		c1-2.8,2.8-5.5,5.2-8.2c2.4-2.6,5.5-5.2,9.2-7.8c3.7-2.6,7.8-5.2,12.3-7.8L179.2,393.5z"/>
</g>
<g class="st4">
	<path class="st5" d="M612.4,271.6c-0.7,0-1.2-0.5-1.2-1.2c0-0.7,0.5-1.2,1.2-1.2c0.6,0,1.1,0.5,1.1,1.2S613,271.6,612.4,271.6
		 M612.4,269.4c-0.5,0-0.9,0.4-0.9,1c0,0.5,0.3,1,0.9,1c0.5,0,0.9-0.4,0.9-1C613.3,269.8,612.9,269.4,612.4,269.4z M612.1,271.1
		h-0.2v-1.3h0.5c0.3,0,0.5,0.1,0.5,0.4c0,0.2-0.1,0.3-0.3,0.4l0.4,0.6h-0.2l-0.3-0.6h-0.2V271.1z M612.4,270.3c0.2,0,0.3,0,0.3-0.2
		c0-0.2-0.2-0.2-0.3-0.2h-0.3v0.4H612.4z"/>
	<polyline class="st6" points="535.6,286.1 536.4,286.1 536.3,289.9 536.3,289.9 537.7,286.1 538.6,286.1 538.4,289.9 538.4,289.9 
		539.9,286.1 540.6,286.1 538.6,291 537.7,291 537.9,287.3 537.9,287.3 536.4,291 535.5,291 535.6,286.1 	"/>
	<path class="st6" d="M540.9,286.1h0.7l-0.3,1.6l0,0c0.3-0.3,0.6-0.5,1-0.5c0.6,0,0.9,0.3,0.7,1l-0.6,2.8h-0.7l0.5-2.5
		c0.1-0.5,0-0.7-0.4-0.7c-0.3,0-0.6,0.2-0.7,0.7l-0.5,2.5h-0.7L540.9,286.1"/>
	<path class="st6" d="M545.3,288.8l0-0.2c0.1-0.5,0-0.8-0.4-0.8c-0.5,0-0.7,0.5-0.8,0.9l0,0.1H545.3 M544,289.3l0,0.2
		c-0.1,0.5-0.2,1.1,0.4,1.1c0.5,0,0.7-0.6,0.8-0.8h0.7c-0.2,0.8-0.8,1.3-1.6,1.3c-0.6,0-1.3-0.2-0.9-1.9c0.2-1,0.6-2,1.8-2
		c1,0,1.2,0.6,1,1.6l-0.1,0.4H544z"/>
	<path class="st6" d="M546.8,287.3h0.7l-0.1,0.6h0c0.3-0.4,0.6-0.7,1-0.7c0.1,0,0.1,0,0.2,0l-0.2,0.8c-0.1,0-0.2,0-0.3,0
		c-0.3,0-0.8,0.2-0.9,0.8l-0.5,2.2H546L546.8,287.3"/>
	<path class="st6" d="M550.3,288.8l0-0.2c0.1-0.5,0-0.8-0.4-0.8c-0.5,0-0.7,0.5-0.8,0.9l0,0.1H550.3 M549,289.3l0,0.2
		c-0.1,0.5-0.2,1.1,0.4,1.1c0.5,0,0.7-0.6,0.8-0.8h0.7c-0.2,0.8-0.8,1.3-1.6,1.3c-0.6,0-1.3-0.2-0.9-1.9c0.2-1,0.6-2,1.8-2
		c1,0,1.2,0.6,1,1.6l-0.1,0.4H549z"/>
	<path class="st5" d="M555.9,289.3l0,0.1c-0.2,0.9-0.7,1.7-1.9,1.7c-1.2,0-1.4-0.8-1.1-2.5c0.4-1.7,0.9-2.5,2.2-2.5
		c1.4,0,1.3,1,1.1,1.5l0,0.1h-0.8l0-0.1c0.1-0.5,0.1-1-0.5-1c-0.6,0-0.9,0.4-1.2,1.9c-0.3,1.6-0.2,2,0.4,2c0.7,0,0.9-0.7,1-1.2
		l0-0.1H555.9"/>
	<path class="st5" d="M557.2,290.6c0.5,0,0.7-0.5,0.9-1.4c0.2-0.8,0.2-1.4-0.3-1.4c-0.5,0-0.8,0.6-0.9,1.4
		C556.7,290.1,556.7,290.6,557.2,290.6 M557.9,287.2c1.1,0,1.2,0.8,1,1.9c-0.2,1.1-0.8,1.9-1.8,1.9c-1,0-1.2-0.8-1-1.9
		C556.4,288,556.8,287.2,557.9,287.2"/>
	<path class="st5" d="M559.7,287.3h0.7l-0.1,0.4h0c0.3-0.3,0.6-0.5,1.1-0.5c0.6,0,0.9,0.3,0.7,1l-0.6,2.8h-0.7l0.5-2.5
		c0.1-0.5,0-0.7-0.4-0.7c-0.3,0-0.6,0.2-0.7,0.7l-0.5,2.5h-0.7L559.7,287.3"/>
	<path class="st5" d="M562.5,287.3h0.5l0.2-1h0.7l-0.2,1h0.6l-0.1,0.5h-0.6l-0.5,2.2c-0.1,0.3,0,0.4,0.3,0.4c0.1,0,0.2,0,0.3,0
		l-0.1,0.5c-0.2,0-0.4,0.1-0.6,0.1c-0.5,0-0.7-0.1-0.6-0.9l0.5-2.3h-0.5L562.5,287.3"/>
	<path class="st5" d="M566.1,288.8l0-0.2c0.1-0.5,0-0.8-0.4-0.8c-0.5,0-0.7,0.5-0.8,0.9l0,0.1H566.1 M564.8,289.3l0,0.2
		c-0.1,0.5-0.2,1.1,0.4,1.1c0.5,0,0.7-0.6,0.8-0.8h0.7c-0.2,0.8-0.8,1.3-1.6,1.3c-0.6,0-1.3-0.2-0.9-1.9c0.2-1,0.6-2,1.8-2
		c1,0,1.2,0.6,1,1.6l-0.1,0.4H564.8z"/>
	<path class="st5" d="M567.6,287.3h0.7l-0.1,0.4h0c0.3-0.3,0.6-0.5,1.1-0.5c0.6,0,0.9,0.3,0.7,1l-0.6,2.8h-0.7l0.5-2.5
		c0.1-0.5,0-0.7-0.4-0.7c-0.3,0-0.6,0.2-0.7,0.7l-0.5,2.5h-0.7L567.6,287.3"/>
	<path class="st5" d="M570.5,287.3h0.5l0.2-1h0.7l-0.2,1h0.6l-0.1,0.5h-0.6l-0.5,2.2c-0.1,0.3,0,0.4,0.3,0.4c0.1,0,0.2,0,0.3,0
		l-0.1,0.5c-0.2,0-0.4,0.1-0.6,0.1c-0.5,0-0.7-0.1-0.6-0.9l0.5-2.3h-0.5L570.5,287.3"/>
	<path class="st6" d="M576.6,289.3l0,0.1c-0.2,0.9-0.7,1.7-1.9,1.7c-1.2,0-1.4-0.8-1.1-2.5c0.4-1.7,0.9-2.5,2.2-2.5
		c1.4,0,1.3,1,1.1,1.5l0,0.1h-0.8l0-0.1c0.1-0.5,0.1-1-0.5-1c-0.6,0-0.9,0.4-1.2,1.9c-0.3,1.6-0.2,2,0.4,2c0.7,0,0.9-0.7,1-1.2
		l0-0.1H576.6"/>
	<path class="st6" d="M577.9,290.6c0.5,0,0.7-0.5,0.9-1.4c0.2-0.8,0.2-1.4-0.3-1.4c-0.5,0-0.8,0.6-0.9,1.4
		C577.4,290.1,577.4,290.6,577.9,290.6 M578.6,287.2c1.1,0,1.2,0.8,1,1.9c-0.2,1.1-0.8,1.9-1.8,1.9c-1,0-1.2-0.8-1-1.9
		C577.1,288,577.6,287.2,578.6,287.2"/>
	<path class="st6" d="M580.5,287.3h0.7l-0.1,0.4h0c0.3-0.3,0.6-0.5,1-0.5c0.5,0,0.7,0.3,0.7,0.6c0.3-0.4,0.6-0.6,1-0.6
		c0.5,0,0.8,0.3,0.7,1L584,291h-0.7l0.5-2.5c0.1-0.5,0-0.7-0.3-0.7c-0.3,0-0.6,0.2-0.7,0.7l-0.5,2.5h-0.7l0.5-2.5
		c0.1-0.5,0-0.7-0.3-0.7c-0.3,0-0.6,0.2-0.7,0.7l-0.5,2.5h-0.7L580.5,287.3"/>
	<path class="st6" d="M586.9,288.8l0-0.2c0.1-0.5,0-0.8-0.4-0.8c-0.5,0-0.7,0.5-0.8,0.9l0,0.1H586.9 M585.6,289.3l0,0.2
		c-0.1,0.5-0.2,1.1,0.4,1.1c0.5,0,0.7-0.6,0.8-0.8h0.7c-0.2,0.8-0.8,1.3-1.6,1.3c-0.6,0-1.3-0.2-0.9-1.9c0.2-1,0.6-2,1.8-2
		c1,0,1.2,0.6,1,1.6l-0.1,0.4H585.6z"/>
	<path class="st6" d="M589.7,288.4L589.7,288.4c0.1-0.4,0-0.7-0.3-0.7c-0.3,0-0.6,0.1-0.6,0.5c-0.1,0.3,0,0.4,0.4,0.5l0.4,0.2
		c0.5,0.2,0.7,0.5,0.6,1.1c-0.2,0.8-0.8,1.1-1.6,1.1c-0.9,0-1.1-0.4-1-1.1l0-0.1h0.7l0,0.1c-0.1,0.4,0,0.7,0.4,0.7
		c0.4,0,0.6-0.2,0.7-0.5c0.1-0.3,0-0.5-0.3-0.5l-0.6-0.2c-0.5-0.2-0.7-0.5-0.6-1.1c0.1-0.7,0.7-1,1.5-1c0.9,0,1,0.5,0.9,1l0,0.2
		H589.7"/>
	<path class="st6" d="M592.1,287.3h0.5l0.2-1h0.7l-0.2,1h0.6l-0.1,0.5h-0.6l-0.5,2.2c-0.1,0.3,0,0.4,0.3,0.4c0.1,0,0.2,0,0.3,0
		l-0.1,0.5c-0.2,0-0.4,0.1-0.6,0.1c-0.5,0-0.7-0.1-0.6-0.9l0.5-2.3H592L592.1,287.3"/>
	<path class="st6" d="M594.7,290.6c0.5,0,0.7-0.5,0.9-1.4c0.2-0.8,0.2-1.4-0.3-1.4c-0.5,0-0.8,0.6-0.9,1.4
		C594.2,290.1,594.2,290.6,594.7,290.6 M595.5,287.2c1.1,0,1.2,0.8,1,1.9c-0.2,1.1-0.8,1.9-1.8,1.9c-1,0-1.2-0.8-1-1.9
		C593.9,288,594.4,287.2,595.5,287.2"/>
	<polyline class="st6" points="598.7,286.1 599.5,286.1 598.6,290.4 600.5,290.4 600.4,291 597.7,291 598.7,286.1 	"/>
	<path class="st6" d="M601.7,286.1h0.7l-0.2,0.7h-0.7L601.7,286.1 M601.5,287.3h0.7l-0.8,3.7h-0.7L601.5,287.3z"/>
	<path class="st6" d="M602.9,287.9h-0.5l0.1-0.5h0.5l0.1-0.3c0.1-0.7,0.5-0.9,1.1-0.9c0.2,0,0.3,0,0.4,0l-0.1,0.6h-0.2
		c-0.3,0-0.4,0.1-0.5,0.3l-0.1,0.3h0.6l-0.1,0.5h-0.6L603,291h-0.7L602.9,287.9"/>
	<path class="st6" d="M606.1,288.8l0-0.2c0.1-0.5,0-0.8-0.4-0.8c-0.5,0-0.7,0.5-0.8,0.9l0,0.1H606.1 M604.8,289.3l0,0.2
		c-0.1,0.5-0.2,1.1,0.4,1.1c0.5,0,0.7-0.6,0.8-0.8h0.7c-0.2,0.8-0.8,1.3-1.6,1.3c-0.6,0-1.3-0.2-0.9-1.9c0.2-1,0.6-2,1.8-2
		c1,0,1.2,0.6,1,1.6l-0.1,0.4H604.8z"/>
	<polyline class="st6" points="515.9,281.8 507.9,273 507.9,281.8 505.1,281.8 505.1,269.3 508.1,269.3 516.1,278.1 516.1,269.3 
		518.9,269.3 518.9,281.8 515.9,281.8 	"/>
	<path class="st6" d="M535.9,281.8v-4.6l1.6-3h-1.6v-4.9l9.3,0c1.2,0,2.2,0.3,2.9,1c0.7,0.7,1.1,1.6,1.1,2.7c0,0.9-0.3,1.8-1,2.4
		c1,0.6,1.5,1.7,1.5,3c0,1.1-0.4,2.1-1.2,2.7c-0.8,0.6-1.9,0.9-3.4,0.9H535.9 M545.1,279.2c0.7,0,1.2-0.1,1.4-0.3
		c0.3-0.2,0.4-0.4,0.4-0.8c0-0.5-0.1-0.8-0.3-0.9c-0.2-0.2-0.6-0.3-1.2-0.3h-6.8v2.4H545.1z M545.2,274.1c0.4,0,0.7-0.1,1-0.3
		c0.3-0.2,0.4-0.5,0.4-0.8c0-0.4-0.1-0.6-0.3-0.8c-0.2-0.2-0.5-0.3-0.9-0.3l-6.7,0v2.2H545.2"/>
	<polyline class="st5" points="574.3,281.8 574.3,276.7 566.7,276.7 566.7,281.8 564.1,281.8 564.1,269.3 566.7,269.3 566.7,274 
		574.3,274 574.3,269.3 577,269.3 577,281.8 574.3,281.8 	"/>
	<path class="st5" d="M585.3,282.2c-2,0-3.6-0.6-5-1.7c-1.5-1.3-2.3-3-2.3-5c0-2,0.8-3.7,2.3-4.9c1.4-1.1,3-1.7,4.9-1.7
		c1.9,0,3.6,0.6,4.9,1.7c1.5,1.3,2.3,3,2.3,4.9c0,2-0.8,3.7-2.3,5C588.9,281.6,587.3,282.2,585.3,282.2
		C585.3,282.2,585.3,282.2,585.3,282.2 M582,272.7c-0.8,0.8-1.2,1.7-1.2,2.8c0,1.2,0.4,2.1,1.2,2.9c0.8,0.7,1.9,1.1,3.3,1.1
		c1.4,0,2.5-0.4,3.3-1.1c0.8-0.7,1.2-1.6,1.2-2.8c0-1.2-0.5-2.2-1.4-3c-0.8-0.7-1.8-1-3.1-1C583.9,271.6,582.9,272,582,272.7z"/>
	<polyline class="st5" points="603.8,281.8 601.4,273.3 598.9,281.8 595.9,281.8 591.9,269.3 594.9,269.3 597.4,277.8 599.9,269.3 
		602.9,269.3 605.3,277.8 607.8,269.3 610.8,269.3 606.9,281.8 603.8,281.8 	"/>
	<polyline class="st7" points="533.2,276.4 535.1,272.5 533,272.5 532.1,274.3 	"/>
	<polyline class="st7" points="530,278.4 527,284.2 529.1,284.2 531.1,280.4 	"/>
	<polyline class="st7" points="524.3,279.4 519.9,288 522,288 526.4,279.4 524.3,279.4 	"/>
	<polyline class="st5" points="527.7,278 520.4,291.9 522.5,291.9 529.7,278 527.7,278 	"/>
	<polyline class="st5" points="534.7,274.6 527.2,289 529.3,289 536.7,274.6 534.7,274.6 	"/>
	<polyline class="st6" points="528.9,269.3 526,269.3 519.5,281.8 522.6,281.8 527.5,272.4 531,279.2 531.3,279.9 532.9,276.9 
		528.9,269.3 	"/>
	<polyline class="st6" points="533.5,281.8 535.4,281.8 534.5,280 533.5,281.8 	"/>
	<path class="st5" d="M561.9,275.2c-0.7-0.6-1.8-1-3.2-1.2c-0.5-0.1-1.5-0.2-2.9-0.3c-1-0.1-1.7-0.2-2-0.3c-0.5-0.2-0.6-0.4-0.6-0.7
		c0-0.3,0.1-0.5,0.6-0.7c0.5-0.2,1.2-0.4,2.3-0.4c1.5,0,3.1,0.4,4.6,1.3l0.3,0.2l0.2-0.3l1.4-1.7l-0.4-0.3c-1.6-1.2-3.7-1.8-6-1.8
		c-1.8,0-3.2,0.3-4.2,1c-1,0.7-1.6,1.7-1.6,3c0,1.2,0.5,2.2,1.5,2.7c0.8,0.4,2.1,0.7,3.9,0.8c2,0.1,3.2,0.3,3.5,0.4
		c0.7,0.2,0.9,0.5,1,1c0,0.5-0.2,0.8-0.7,1.1c-0.6,0.3-1.5,0.5-2.7,0.5c-1.8,0-3.5-0.5-5.1-1.6l-0.1-0.1l-1.5,2.1l0.1,0.1
		c1.6,1.4,3.8,2.1,6.6,2.1c1.9,0,3.4-0.3,4.5-1.1c1.1-0.7,1.7-1.9,1.7-3.2C563,276.7,562.6,275.8,561.9,275.2"/>
</g>
</svg>
